<?xml version="1.0" encoding="utf-8"?>
<!-- Generator: Adobe Illustrator 22.0.1, SVG Export Plug-In . SVG Version: 6.00 Build 0)  -->
<svg version="1.1" id="Layer_1" xmlns="http://www.w3.org/2000/svg" xmlns:xlink="http://www.w3.org/1999/xlink" x="0px" y="0px"
	 viewBox="0 0 668.7 515.5" style="enable-background:new 0 0 668.7 515.5;" xml:space="preserve">
<style type="text/css">
	.st0{fill:#efefef;}
</style>
<g>
	<path class="st0" d="M325.3,4.3c26.5,0.7,67,14.7,92.2,36.4c117,100.6,130.9,40.9,200,110.1c44.7,44.7,43.7,134.6,43.6,150.3
		c-0.2,86-63.4,165.4-144.2,194.7c-80.9,29.3-174.5,12.2-246.4-35c-16.1-10.6-31.3-22.6-47.9-32.4c-22.6-13.5-47.7-22.9-73.6-27.7
		c-35.3-6.5-74.6-5.3-102.8-27.5c-13.3-10.5-22.7-25.3-29.5-40.8c-17.9-41-31-150,69.8-189.6C151.2,117.4,174.3,0.5,325.3,4.3z"/>
</g>
</svg>
