<?xml version="1.0" encoding="utf-8"?>
<!-- Generator: Adobe Illustrator 22.0.1, SVG Export Plug-In . SVG Version: 6.00 Build 0)  -->
<svg version="1.1" xmlns="http://www.w3.org/2000/svg" xmlns:xlink="http://www.w3.org/1999/xlink" x="0px" y="0px"
	 viewBox="0 0 643.4 636.4" style="enable-background:new 0 0 643.4 636.4;" xml:space="preserve">
<style type="text/css">
	.st0{display:none;}
	.st1{display:inline;fill:none;stroke:#36B7FF;stroke-width:0.5;stroke-miterlimit:10;}
	.st2{stroke:#000000;stroke-miterlimit:10;}
</style>
<g id="Layer_1" class="st0">
	<circle class="st1" cx="321.7" cy="318.2" r="190.1"/>
	<circle class="st1" cx="321.7" cy="318.2" r="224.7"/>
	
		<rect x="96.6" y="93.1" transform="matrix(-0.7071 -0.7071 0.7071 -0.7071 324.2098 770.6984)" class="st1" width="450.2" height="450.2"/>
	
		<rect x="131.6" y="128.1" transform="matrix(0.7071 -0.7071 0.7071 0.7071 -130.7735 320.6912)" class="st1" width="380.2" height="380.2"/>
	
		<rect x="96.6" y="93.1" transform="matrix(-1 -1.224647e-16 1.224647e-16 -1 643.4436 636.4063)" class="st1" width="450.2" height="450.2"/>
	
		<rect x="131.6" y="128.1" transform="matrix(6.123234e-17 -1 1 6.123234e-17 3.5186 639.9244)" class="st1" width="380.2" height="380.2"/>
	
		<rect x="106.7" y="150.4" transform="matrix(0.7071 0.7071 -0.7071 0.7071 170.6051 -24.9841)" class="st1" width="17.5" height="86"/>
	
		<rect x="155.5" y="150.3" transform="matrix(-0.7071 0.7071 -0.7071 -0.7071 417.1087 213.9298)" class="st1" width="17.5" height="86"/>
	
		<rect x="96.6" y="174.5" transform="matrix(0.7071 0.7071 -0.7071 0.7071 194.8534 -35.0674)" class="st1" width="86.4" height="86.4"/>
	
		<rect x="469.8" y="150.4" transform="matrix(0.7071 0.7071 -0.7071 0.7071 276.9493 -281.7217)" class="st1" width="17.5" height="86"/>
	
		<rect x="518.6" y="150.3" transform="matrix(-0.7071 0.7071 -0.7071 -0.7071 1036.9283 -42.8079)" class="st1" width="17.5" height="86"/>
	
		<rect x="445.8" y="151.9" transform="matrix(-0.7071 0.7071 -0.7071 -0.7071 913.775 11.3806)" class="st1" width="17.5" height="86"/>
	
		<rect x="189.9" y="407.8" transform="matrix(-0.7071 0.7071 -0.7071 -0.7071 657.894 629.1319)" class="st1" width="17.5" height="86"/>
	
		<rect x="459.7" y="174.5" transform="matrix(0.7071 0.7071 -0.7071 0.7071 301.1976 -291.8051)" class="st1" width="86.4" height="86.4"/>
	
		<rect x="519.2" y="399.9" transform="matrix(-0.7071 -0.7071 0.7071 -0.7071 588.1028 1129.5198)" class="st1" width="17.5" height="86"/>
	
		<rect x="470.5" y="400" transform="matrix(0.7071 -0.7071 0.7071 0.7071 -172.9343 468.6103)" class="st1" width="17.5" height="86"/>
	
		<rect x="460.5" y="375.5" transform="matrix(-0.7071 -0.7071 0.7071 -0.7071 563.7594 1070.979)" class="st1" width="86.4" height="86.4"/>
	
		<rect x="155.9" y="400.2" transform="matrix(-0.7071 -0.7071 0.7071 -0.7071 -32.325 872.9775)" class="st1" width="17.5" height="86"/>
	
		<rect x="107.1" y="400.3" transform="matrix(0.7071 -0.7071 0.7071 0.7071 -279.5139 211.7517)" class="st1" width="17.5" height="86"/>
	
		<rect x="97.2" y="375.8" transform="matrix(-0.7071 -0.7071 0.7071 -0.7071 -56.6684 814.4368)" class="st1" width="86.4" height="86.4"/>
</g>
<g id="Layer_2">
	<path class="st2" d="M161.3,433.8l-17.7,17.7c-2,2-5.1,2-7.1,0l-5-5l-35-35l-5.1-5.1l-81.1-81.1c-3.9-3.9-3.9-10.2,0-14.1
		L136.5,185c2-2,5.1-2,7.1,0l17.7,17.7c2,2,2,5.1,0,7.1l-29.7,29.7L116,255l-19.4,19.4l-36.7,36.7c-3.9,3.9-3.9,10.2,0,14.1
		L96.6,362l19.7,19.6l15.3,15.4l29.7,29.7C163.3,428.6,163.3,431.8,161.3,433.8z"/>
	<path class="st2" d="M191.2,423.9l236.3-236.3c2-2,5.1-2,7.1,0l17.7,17.7c2,2,2,5.1,0,7.1L215.9,448.6c-2,2-5.1,2-7.1,0l-17.6-17.7
		C189.2,429,189.2,425.8,191.2,423.9z"/>
	<path class="st2" d="M546.8,103.1v90c0,2.7-3.2,4-5.1,2.1l-26.9-26.9c-1.9-1.9-2.9-4.4-2.9-7.1v-23.1c0-5.5-4.5-10-10-10h-97.2
		c-2.7,0-5.2-1.1-7.1-2.9l-68.8-68.8c-3.9-3.9-10.2-3.9-14.1,0l-68.8,68.8c-1.9,1.9-4.4,2.9-7.1,2.9h-97.2c-5.5,0-10,4.5-10,10v22.5
		c0,2.7-1.1,5.2-2.9,7.1l-26.9,26.9c-1.9,1.9-5.1,0.6-5.1-2.1v-89.4c0-5.5,4.5-10,10-10h117.7c2.7,0,5.2-1.1,7.1-2.9l83.3-83.3
		c3.9-3.9,10.2-3.9,14.1,0L412,90.2c1.9,1.9,4.4,2.9,7.1,2.9h117.7C542.4,93.1,546.8,97.6,546.8,103.1z"/>
	<path class="st2" d="M546.8,444.2v89.1c0,5.5-4.5,10-10,10H419.1c-2.7,0-5.2,1.1-7.1,2.9l-83.3,83.3c-3.9,3.9-10.2,3.9-14.1,0
		l-83.3-83.3c-1.9-1.9-4.4-2.9-7.1-2.9H106.6c-5.5,0-10-4.5-10-10v-89.7c0-2.7,3.2-4,5.1-2.1l26.9,26.9c1.9,1.9,2.9,4.4,2.9,7.1
		v22.8c0,5.5,4.5,10,10,10h97.2c2.7,0,5.2,1.1,7.1,2.9l68.8,68.8c3.9,3.9,10.2,3.9,14.1,0l68.8-68.8c1.9-1.9,4.4-2.9,7.1-2.9h97.2
		c5.5,0,10-4.5,10-10v-22.2c0-2.7,1.1-5.2,2.9-7.1l26.9-26.9C543.6,440.2,546.8,441.5,546.8,444.2z"/>
	<path class="st2" d="M633,311.1c3.9,3.9,3.9,10.2,0,14.1L511.8,446.5l-4.8,4.8c-2,2-5.1,2-7.1,0l-17.7-17.7c-2-2-2-5.1,0-7.1
		l29.5-29.5l15.7-15.7l19.3-19.3l36.7-36.7c3.9-3.9,3.9-10.2,0-14.1L481.9,209.5c-2-2-2-5.1,0-7.1l17.5-17.5c2-2,5.1-2,7.1,0
		l5.3,5.3l35,35l4.7,4.7l0.1-0.1l0,0l0,0l0.1-0.1l0,0L633,311.1z"/>
</g>
</svg>
